<?xml version="1.0"?><svg viewBox="0 0 40 40" xmlns="http://www.w3.org/2000/svg"><g id="WeChat"><path d="M15.37,6C8,6,3.3,11.14,3.3,16.29,3.3,21.18,8,24.12,8,24.12l-1.1,3.43,4-2.08a15.52,15.52,0,0,0,4.89.67h.09a7.77,7.77,0,0,1-.45-2.63,8.36,8.36,0,0,1,3.12-6.4A11.41,11.41,0,0,1,26,14.51c.35,0,.69,0,1,0a.34.34,0,0,0,0-.1C27,11.94,22.77,6,15.37,6Zm-4.26,8.23a1.65,1.65,0,1,1,1.65-1.65A1.65,1.65,0,0,1,11.11,14.23Zm8.2,0A1.65,1.65,0,1,1,21,12.58,1.65,1.65,0,0,1,19.31,14.23Zm16.57,9.28c0-4.63-4.44-8.39-9.92-8.39S16,18.88,16,23.51,20.48,31.9,26,31.9a11.36,11.36,0,0,0,3.73-.62h0L32.88,33,32,30.13h0A8,8,0,0,0,35.88,23.51Zm-13-1.38a1.35,1.35,0,1,1,1.34-1.34A1.34,1.34,0,0,1,22.93,22.13Zm6.55,0a1.35,1.35,0,1,1,1.34-1.34A1.34,1.34,0,0,1,29.48,22.13Z"/></g></svg>